<mxfile host="app.diagrams.net" modified="2021-06-04T13:37:45.616Z" agent="5.0 (Windows NT 10.0; WOW64) AppleWebKit/537.36 (KHTML, like Gecko) Chrome/86.0.4240.198 Safari/537.36" etag="m2fVTsE1nNOpfrw9V0Fa" version="14.7.6" type="github">
  <diagram id="TVMZTbfCneLhh9I-Gff8" name="Page-1">
    <mxGraphModel dx="1036" dy="575" grid="1" gridSize="10" guides="1" tooltips="1" connect="1" arrows="1" fold="1" page="1" pageScale="1" pageWidth="827" pageHeight="1169" math="0" shadow="0">
      <root>
        <mxCell id="0" />
        <mxCell id="1" parent="0" />
        <mxCell id="Qc_HWr1h5RPqcJCrXAZu-3" value="" style="edgeStyle=orthogonalEdgeStyle;rounded=0;orthogonalLoop=1;jettySize=auto;html=1;" edge="1" parent="1" source="Qc_HWr1h5RPqcJCrXAZu-1" target="Qc_HWr1h5RPqcJCrXAZu-2">
          <mxGeometry relative="1" as="geometry" />
        </mxCell>
        <mxCell id="Qc_HWr1h5RPqcJCrXAZu-1" value="" style="rounded=0;whiteSpace=wrap;html=1;fillColor=#d5e8d4;strokeColor=#82b366;" vertex="1" parent="1">
          <mxGeometry x="90" y="160" width="120" height="60" as="geometry" />
        </mxCell>
        <mxCell id="Qc_HWr1h5RPqcJCrXAZu-8" value="" style="edgeStyle=orthogonalEdgeStyle;rounded=0;orthogonalLoop=1;jettySize=auto;html=1;" edge="1" parent="1" source="Qc_HWr1h5RPqcJCrXAZu-2" target="Qc_HWr1h5RPqcJCrXAZu-7">
          <mxGeometry relative="1" as="geometry" />
        </mxCell>
        <mxCell id="Qc_HWr1h5RPqcJCrXAZu-2" value="" style="rounded=0;whiteSpace=wrap;html=1;fillColor=#d5e8d4;strokeColor=#82b366;" vertex="1" parent="1">
          <mxGeometry x="290" y="160" width="120" height="60" as="geometry" />
        </mxCell>
        <mxCell id="Qc_HWr1h5RPqcJCrXAZu-6" value="" style="endArrow=classic;html=1;exitX=1;exitY=1;exitDx=0;exitDy=0;entryX=0;entryY=0.5;entryDx=0;entryDy=0;" edge="1" parent="1" source="Qc_HWr1h5RPqcJCrXAZu-2" target="Qc_HWr1h5RPqcJCrXAZu-10">
          <mxGeometry width="50" height="50" relative="1" as="geometry">
            <mxPoint x="390" y="320" as="sourcePoint" />
            <mxPoint x="480" y="300" as="targetPoint" />
          </mxGeometry>
        </mxCell>
        <mxCell id="Qc_HWr1h5RPqcJCrXAZu-12" value="" style="edgeStyle=orthogonalEdgeStyle;rounded=0;orthogonalLoop=1;jettySize=auto;html=1;" edge="1" parent="1" source="Qc_HWr1h5RPqcJCrXAZu-7" target="Qc_HWr1h5RPqcJCrXAZu-11">
          <mxGeometry relative="1" as="geometry" />
        </mxCell>
        <mxCell id="Qc_HWr1h5RPqcJCrXAZu-7" value="&lt;font style=&quot;font-size: 17px&quot;&gt;A-&amp;gt;B&lt;/font&gt;" style="rounded=0;whiteSpace=wrap;html=1;fillColor=#d5e8d4;strokeColor=#82b366;" vertex="1" parent="1">
          <mxGeometry x="490" y="160" width="120" height="60" as="geometry" />
        </mxCell>
        <mxCell id="Qc_HWr1h5RPqcJCrXAZu-14" value="" style="edgeStyle=orthogonalEdgeStyle;rounded=0;orthogonalLoop=1;jettySize=auto;html=1;" edge="1" parent="1" source="Qc_HWr1h5RPqcJCrXAZu-10" target="Qc_HWr1h5RPqcJCrXAZu-13">
          <mxGeometry relative="1" as="geometry" />
        </mxCell>
        <mxCell id="Qc_HWr1h5RPqcJCrXAZu-10" value="" style="rounded=0;whiteSpace=wrap;html=1;fillColor=#f8cecc;strokeColor=#b85450;" vertex="1" parent="1">
          <mxGeometry x="490" y="270" width="120" height="60" as="geometry" />
        </mxCell>
        <mxCell id="Qc_HWr1h5RPqcJCrXAZu-16" value="" style="edgeStyle=orthogonalEdgeStyle;rounded=0;orthogonalLoop=1;jettySize=auto;html=1;" edge="1" parent="1" source="Qc_HWr1h5RPqcJCrXAZu-11" target="Qc_HWr1h5RPqcJCrXAZu-15">
          <mxGeometry relative="1" as="geometry" />
        </mxCell>
        <mxCell id="Qc_HWr1h5RPqcJCrXAZu-11" value="" style="rounded=0;whiteSpace=wrap;html=1;fillColor=#d5e8d4;strokeColor=#82b366;" vertex="1" parent="1">
          <mxGeometry x="690" y="160" width="120" height="60" as="geometry" />
        </mxCell>
        <mxCell id="Qc_HWr1h5RPqcJCrXAZu-13" value="" style="rounded=0;whiteSpace=wrap;html=1;fillColor=#f8cecc;strokeColor=#b85450;" vertex="1" parent="1">
          <mxGeometry x="690" y="270" width="120" height="60" as="geometry" />
        </mxCell>
        <mxCell id="Qc_HWr1h5RPqcJCrXAZu-15" value="" style="rounded=0;whiteSpace=wrap;html=1;fillColor=#d5e8d4;strokeColor=#82b366;" vertex="1" parent="1">
          <mxGeometry x="890" y="160" width="120" height="60" as="geometry" />
        </mxCell>
      </root>
    </mxGraphModel>
  </diagram>
</mxfile>
